<?xml version="1.0" standalone="no"?>
<!DOCTYPE svg PUBLIC "-//W3C//DTD SVG 20010904//EN"
 "http://www.w3.org/TR/2001/REC-SVG-20010904/DTD/svg10.dtd">
<svg version="1.0" xmlns="http://www.w3.org/2000/svg"
 width="113.000000pt" height="113.000000pt" viewBox="0 0 113.000000 113.000000"
 preserveAspectRatio="xMidYMid meet">
<metadata>
Created by potrace 1.14, written by Peter Selinger 2001-2017
</metadata>
<g transform="translate(0.000000,113.000000) scale(0.100000,-0.100000)"
fill="#000000" stroke="none">
<path d="M495 1083 c-4 -10 -29 -76 -57 -148 -27 -71 -58 -149 -69 -172 -10
-23 -19 -45 -19 -48 0 -7 -88 -231 -100 -254 -4 -9 -21 -50 -36 -91 -16 -41
-31 -79 -33 -84 -2 -5 10 -7 27 -4 40 6 52 -19 16 -32 -14 -6 -31 -10 -38 -10
-18 0 -29 -15 -54 -79 -34 -83 -36 -81 77 -81 l99 0 31 93 c17 50 31 95 31 99
0 3 -18 4 -40 1 -31 -4 -40 -2 -40 9 0 10 18 20 48 28 26 7 48 14 50 15 2 2
36 99 76 216 41 118 77 213 82 212 4 -1 34 -77 66 -170 31 -92 61 -175 66
-183 6 -10 21 -14 41 -12 38 4 44 -23 6 -32 -33 -8 -32 -19 18 -156 l42 -115
94 -3 c52 -1 97 1 102 5 4 4 -19 71 -50 148 l-56 140 -35 -2 c-33 -1 -54 12
-44 29 3 4 14 8 25 8 11 0 22 6 25 14 3 8 -54 163 -128 345 l-133 331 -41 0
c-31 0 -44 -5 -49 -17z"/>
</g>
</svg>
